<svg width="1000" height="666.667" xmlns="http://www.w3.org/2000/svg">
  <path d="m3670.357 4474.208-59.636 5.698-6.407 35.336-40.441 3.21v54.545l17.429 26.325 32.023-66.766 24.43 34.034 32.602-92.382" style="fill:#fff;fill-opacity:1;fill-rule:nonzero;stroke:none;stroke-width:1.28916" transform="matrix(.13333 0 0 -.13333 0 666.667)"/>
  <path d="m909.175 2065.342-57.393-103.52-132.1-108.032-142.299-169.087 80.637 128.53 87.522 94.277 97.822 85.136 28.464 108.032-126.776-154.507-112.647-80.882 229.819 281.76 58.812 277.118 7.348-134.588-4.5-59.405 25.848-24.79L902.06 2164zm-637.491-648.166 81.578 115.496 121.194 88.94zm739.477 925.89 34.266-12.105-3.326-102.334-32.126 61.429zm1450.025-368.907 87.625 63.44-21.104 33.557 39.72 17.43 60.951 67.706 73.998-11.151-34.859-51.58-18.615 21.104-38.546-74.578 27.987-27.395-122.496-36.045-4.267-85.742-87.753-78.974 69.008 106.962zm-325.397-83.486 283.177 311.385 73.405 1.186-78.394-106.833zm-30 140.635 70.673 20.046-5.57-32.86-171.948-86.194zm-7.231 74.578 149.053 81.23-165.774-150.239 20.047 50.045zm5652.556-724.059-287.908-32.01-450.254-108.38-233.248 50.278-48.86 59.52-40.196-40.918-66.056-2.836-78.265-37.36-35.93 55.976-208.947-124.16-121.31-112.763-39.72-1.418-111.357-107.684-232.527 3.674-248.435 107.684-383.848 242.982-320.048 211.075-76.138-5.338-294.187 204.075-66.534 78.613-113.485 57.046-173.727 92.02-89.997 44.347 60.59-64.277 61.313-11.384 90.835-72.799 10.79-65.58 103.172-64.393 71.02-81.101 197.448-195.438 140.39-70.788 145.276-89.3-97.719-5.685 258.155-108.973 145.611-154.635-265.98 180.018-231.108 80.74 182.133-162.692 146.926-186.529-217.237 208.11-183.1 98.905-89.287 51.708-153.669 75.171 73.985-61.429 98.183-94.624-106.6 49.323-148.229 83.138 57.51-2.024-98.067 99.485-73.52 115.032 136.019-89.171 78.729-57.046-40.66 85.278 182.365-80.766-99.717 118.346-91.556 90.602-97.938 106.24-130.438 100.09-110.649 78.73 88.824-102.218 71.149-127.717-154.043 161.88 64.755-84.788 84.543-127.718-86.09 93.09-83.834 86.207-66.289 91.544-61.79 37.824 7.594-38.533 104.473-115.02 163.17-166.611-192.214 157.948-158.323 160.798-2.01-25.616-32.14 17.558-75.3 97.113-79.438 45.662-72.812-63.917-107.916 103.636-85.252 53.72-54.08 59.868-114.079 40.57-73.985 54.79 44.825-91.557 144.309-217.83-125.81 129.961-30.36-.36 91.544-131.38 159.134-183.215 125.81-109.218 162.937-100.787 97.719-108.38 95.101-126.532 65.451-112.299-128.89 87.406-13.292 34.73 19.454 14.838-84.196 77.311-94.044 6.64-59.52 70.903-124.276 28.336 149.414-116.192 129.02-188.076-111.578-18.268-115.509 13.408-35.568-27.988-201.006 84.904-2.836 68.429-40.918 99.962-36.522 176.087-125.578 168.261-52.172-98.299-9.733-47.905-69.241 90.358-45.43-42.453-95.927 18.023-87.754-51.45-44.824 24.416-170.04-59.056 48.498 64.032 103.997 34.988 100.915-.477 86.09 49.453 124.87 39.835 87.868 80.044 44.464 103.765-36.174 75.545-12.093 68.3-36.277-42.697-18.267 26.801-72.567-85.497-111.59-55.615 96.997 80.522 77.917 103.158 75.532 80.522 17.674 161.274-57.045-14.232-3.674 63.44 96.287-42.453 64.742-88.333 1.186 37.81 102.579-88.578-74.346 103.765-119.416 95.81-78.858 14.71-102.578 20.872-59.289 11.976-68.66-119.3-159.844-137.308-32.255 51.335-83.963-59.998-99.833 12.57-29.65 16.114-32.14-36.148-272.62-213.1-151.192-85.264-124.624-19.325-159.263-134.46-178.575 160.076-197.564 150.123-12.802 9.72-9.488 21.813 1.418-80.032 28.104-7.593 11.267-91.414 28.697.464 5.685-62.499 52.186-34.382 6.162 76.615 103.88-110.056 10.198 57.033 186.761-184.028 292.55-130.567 275.455-41.859 278.447-326.094-175.507 142.646-62.254-.941 66.998-169.693-103.288 99.846-53.835 82.764-79.09 36.651 54.312-92.974-100.567 82.416-63.672-10.081-142.775 163.878-239.295 49.453 28.813-98.66 68.068-73.521 92.253-130.45-104.23 98.427 79.091-122.02L1669.176 1448l-91.08 119.763-81.23 187.6-61.067 53.255-142.646 108.728 53.72-84.311 56.67-128.066 44-151.67-71.149 137.554-38.417 110.52-65.709 94.985.49-94.87-17.197-71.857 34.859-150.6-51.58 89.545-45.778-7.49-6.64-74.346-60.126-113.485-154.506-143.6 61.068 188.54 42.929 115.277 43.986 77.788-66.392 48.498-84.672-10.442 117.16 92.382-12.686 29.998 30.463 60.604 61.196 84.543 3.558 111.474-29.767 45.173 1.896 132.925-35.091 26.454-50.987 100.078-4.28-45.418-32.255 15.406-41.266 115.741-220.202-237.4-86.812-12.917-12.918-42.22-38.662-45.765-4.744-75.081-96.171-116.076 4.744-123.683-35.091-32.603-36.29 16.94-9.604-61.648-54.429 4.86-161.983-374.734-257.44-241.782-118.352-365.942c-36.64-195.786 48.722-743.557 11.96-939.212C2858.391-923.507 7500 0 7500 0l251.114 1381.827" style="fill:#1c283e;fill-opacity:1;fill-rule:nonzero;stroke:none;stroke-width:1.28916" transform="matrix(.13333 0 0 -.13333 0 666.667)"/>
  <path d="m1597.189 1765.805-74.23 95.088 113.485-91.775zm742.803-350.653 175.507-142.646-278.446 326.094-275.456 41.86-292.55 130.566-186.761 184.028-10.197-57.033-103.881 110.056-6.162-76.615-52.186 34.382-5.685 62.499-28.697-.464-11.267 91.414-28.104 7.593-1.418 80.032-73.766 170.414-133.634 195.889-50.639-54.545 41.266-115.741 32.255-15.406 4.28 45.418 50.987-100.078 35.09-26.454-1.895-132.925 29.767-45.173-3.558-111.474-61.196-84.543-30.463-60.604 12.685-29.998-117.16-92.382 84.673 10.442 66.392-48.498-43.986-77.788-42.93-115.277-61.067-188.54 154.506 143.6 60.127 113.485 6.639 74.346 45.778 7.49 51.58-89.545-34.86 150.6 17.198 71.858-.49 94.87 65.709-94.986 38.417-110.52 71.149-137.554-44 151.67-56.67 128.065-53.72 84.312 142.646-108.728 61.067-53.256 81.23-187.599 91.08-119.763 111.345-117.752-79.09 122.02 104.229-98.429-92.253 130.45-68.068 73.522-28.813 98.66 239.295-49.453 142.775-163.878 63.672 10.081 100.567-82.416-54.312 92.974 79.09-36.65 53.836-82.765 103.287-99.846-66.997 169.693 62.253.941M474.456 1621.612l-202.772-204.436 81.578 115.496zM902.06 2164.001l7.115-98.66-57.393-103.52-132.1-108.031-142.299-169.087 80.637 128.53 87.522 94.277 97.822 85.136 28.464 108.032-126.776-154.507-112.647-80.882 229.819 281.76 58.812 277.118 7.348-134.588-4.5-59.405 25.848-24.79L902.06 2164" style="fill:#fff;fill-opacity:1;fill-rule:nonzero;stroke:none;stroke-width:1.28916" transform="matrix(.13333 0 0 -.13333 0 666.667)"/>
  <path d="m1636.444 1769.118-39.255-3.313-74.23 95.088z" style="fill:#1c283e;fill-opacity:1;fill-rule:nonzero;stroke:none;stroke-width:1.28916" transform="matrix(.13333 0 0 -.13333 0 666.667)"/>
  <path d="m1045.427 2330.961-3.326-102.334-32.126 61.429 1.186 53.01 34.266-12.105M2492.371 2203.244l-78.394-106.833-278.188-205.738 283.177 311.384 73.405 1.187M2176.462 2051.354l-5.57-32.86-171.948-86.194 106.846 99.008 70.672 20.046M2081.837 2036.877l20.047 50.045-3.326 18.964 149.053 81.23-165.774-150.239M2702.376 2145.141l-34.859-51.58-18.615 21.104-38.546-74.578 27.987-27.395-122.496-36.045-4.267-85.742-87.753-78.974 69.008 106.962-31.649 55.266 87.625 63.44-21.104 33.557 39.72 17.43 60.951 67.706 73.998-11.151" style="fill:#fff;fill-opacity:1;fill-rule:nonzero;stroke:none;stroke-width:1.28916" transform="matrix(.13333 0 0 -.13333 0 666.667)"/>
  <path d="m6463.072 1575.008 69.976 57.626 18.139-222.458-117.391 66.65-75.778 124.146-21.335-34.975-72.348 7.825-72.206 98.3-102.824 205.505 112.892 147.867-48.498-15.78-48.485 86.942-116.347 68.88 103.893 12.453-68.906 198.75 83.59-82.416 86.941-160.32 110.636 14.58-65.464-72.219 14.697-55.382 69.976 85.87-28.233-108.392-37.347-136.6 294.793-24.906-103.868-104.951zm-400.917-70.208 43.278-89.88-80.16 59.65-26.905 112.054-62.976 139.693-77.672 89.997 125.1-75.184 34.28 98.905 40.08-185.576-43.278 17.198 98.054-143.96-37.58 101.379 144.67-217.482zm-20.162-263.608-68.055 75.184-50.406 65.348-58.348 22.16-40.673 67.244-104.345 88.45-59.288 16.732-41.628 59.29v134.472l-105.891 257.91-6.885 153.217-24.184-60.604-34.743 137.683 43.277 4.267-68.287 83.95-34.64 50.278 118.577-59.766 66.895-98.299 50.394-91.904 60.938-38.069 134.486-38.056 39.719 22.999 122.973-103.391-41.498-20.395-94.637 78.73-7.955-51.348-79.67 58.463-46.023-37.244-63.672 86.697-2.604-130.928-41.511 35.452 30.966-103.507 92.845-211.306-82.3 108.728 68.055-169.809 67.243-61.068 130.09-113.124 96.403-118.59 95.463-148.576zm-355.5 134.357-16.733-83.963-39.835 82.184-42.453 26.57-130.914 263.595-14.116 120.24 91.08-132.693v-45.057l62.73-123.798-9.733 103.404 80.52-160.089-12.337 122.974 63.685-128.182 19.454-116.81zm-271.201 463.068-44.824-113.021-97.126 141.95 2.85 97.112-95.347 81.23-.941-57.857-111.939 87.74 64.394-97.113 129.845-252.095-57.987 34.613-69.963 67.243-123.321 32.603-69.022 53.243-3.79 27.987-154.042 113.963 192.343-308.2-169.938 124.275 27.988-89.649-98.054 69.125-30.837 136.265-90.473 48.614-47.686 48.498-18.603-38.3-53.255-5.57-102.798 105.531-91.427 190.448 45.778 67.243 7.464 36.393 36.406-40.08 74.707-19.686-40.196 102.695 58.811 12.209-113.008 88.707 41.15-117.636-102.926 101.624 25.254-67.835-148.589 106.136-73.405 67.836-17.313 79.438 75.893 6.885-.593 23.952 72.103 80.87 29.65-14.826 63.428 38.778 16.72 45.07 75.184-103.65 85.742-88.1 157.24-152.973 17.906-110.997-41.382 40.79-77.685 20.29-49.323-35.825 58.58-50.51 77.078-9.256-5.569 25.268 53.59-5.57 49.453-43.767 61.66-29.521 97.951-15.419 48.73-51.824 78.279-52.405 40.08-88.823L5127.73 2201l76.486-103.764 91.557-96.16 125.1-69.962-22.419-35.465zm-1307.83 1182.137 27.381 88.346 63.8-44.463-1.417 47.428 54.892-11.151 94.277-77.08-1.534-58.695-115.741-22.173zm381.347 62.382 53.371-12.582-97.95-28.929 7.464 35.581-27.395 72.683zm135.065 249.26-53.474 35.684 22.999-79.45-60.836 89.763-15.535 59.418zm192.576-66.882 107.787-184.75 41.756-48.859 14.812-28.22 57.046-36.522 40.428-158.554-62.254-10.906-122.496 81.462-7.104 62.976 30.231-1.303-48.859 134.112-61.545 126.996zm349.93-511.45-44.58-16.243-17.674-51.94-66.869 83.718zm55.976-162.924 114.078-170.054 63.8-137.67 2.85-63.091-108.277 121.903 56.697-115.509 27.266-131.134-153.565 300.479-58.825 109.695-66.637 78.136-14.348 88.94 31.546-40.08 40.209-87.51 65.928-61.673-53.72 97.487-10.79 45.172zm305.235 200.748-63.672 24.07-7.245-62.487-20.395 126.055zm119.518-227.073 86.568-42.104 111.113-77.543-121.31 38.533-65.568 37.824-15.534-128.542-7.232 139.925zm165.194 115.251-24.533-25.731 29.999-37.347 54.067-144.077-76.847 139.926-64.393 66.044-48.022 70.916zm35.465 39.14 25.254-135.788-34.859 87.044-50.393 59.534-60.127 86.554zm112.415 93.077 42.09-59.998 49.221-11.499 13.279-53.487 35.335-67.23-75.068 13.755-87.753 85.382-21.58 102.101zM3940.025 2127.84l4.963-39.848-86.67 118.578-33.802 86.696 27.033 6.15-33.789 57.754 100.207-87.277 110.636 11.616 41.73-48.486-95.217 12.209 89.764-88.463 78.033-118.59zm122.728 1917.94 57.161 3.559-74.01-43.87zm-109.579-129.496c-.709.361-1.418.593-2.256.954l2.14 2.604-1.663 64.742 48.382-8.405-46.719-56.337zm-25.255 82.055-30.591 45.663 88.694 3.558zm-156.53-328.234-71.858 21.465-34.743 30.244 92.137-20.279 17.313 10.79 59.52-19.917 25.978-56.93zm-137.438 185.936 56.453 25.732 26.44-26.08zm-91.66 49.337 38.779-54.906-106.253 100.8 25.5-55.498-43.638 28.58 19.685 133.403 63.556-79.335 47.08 21.348 101.032-100.322-78.626-31.546zm129.961 120.485-7.94-26.093-65.104 35.104zm-226.957 251.387 47.429 77.556 48.15-8.895 138.495 67.346 78.987-126.403-37.837 11.5-75.777 60.951-128.89-82.055 67.938-160.437 1.315-88.475-30.837-32.719-78.265 87.277-3.79 162.344zm118.577 295.747 17.43 26.325 32.023-66.766 24.43 34.034 32.602-92.382-59.636 5.698-6.407 35.336-40.441 3.21zm-153.204-1313.542 5.685-87.276-29.521-39.72zm-59.056 563.623-86.684-129.02-10.197-81.462-1.895 112.892 89.171 112.892-7.116 112.299 46.836 88.578 1.302-83.37zm-186.761-438.51 43.625 60.94 18.035 64.161 1.895-82.055zm-59.65-118.706-144.322-173.83-51.347-103.288-55.73-42.336 92.38 157.832-68.067-62.847-60.243-101.392-91.788-51.348 46.848 95.579 126.995 107.194 185.472 187.25 53.836 25.01zm-69.254-206.575-74.346-60.23 141.705 193.645zm-75.068 275.236-23.115-57.741-44.824-26.325zm122.496 102.695-51.94-100.8-38.417-25.022 23.012 57.161zm7.71 60.243-76.963-83.37-74.347-44.232zm44.347 381.347 48.743 69.976-50.045-117.997zM2434.256 2579.28l-91.299-103.056 83.95 141.357 97.59 182.494zm-365.93-219.867-152.391-37.347-116.683 103.056 90.242-39.256 78.497-27.394 156.066 85.858 29.161-11.022zm-31.906 457.975-30.128-67.475-135.066-85.729 89.417 119.531zm-153.333 84.904 98.543 2.734-39.126-56.569-55.743-9.14-60.23-31.894zm-144.064-497.217-47.441 73.882 73.881-61.184zm-61.674-307.001-68.3 11.86-147.867-59.302 157.007 91.196 76.59 14.58zm5719.09-554.018-312.57 176.331 86.078-170.17 171.587-175.145-76.718 2.385-89.171 83.473 18.022-129.844-62.138 157.007-111.822 161.377-53.01 38.43-4.035 74.94-112.995 21.812-93.336 117.056 11.977-49.581-54.545 27.756-75.416 120.008-30.72-36.651-72.452 54.544-37.708 87.277-4.976-56.556-108.148 146.333-39.255 28.336 72.103 73.882 127.124-99.614-317.211 583.656-79.567-28.104-36.174 23.721h-44.812l-134.717 220.563-97.242 129.613-119.647-80.999-56.079-9.965-41.034-32.37-49.929 43.521-156.994-125.809h-67.346l-88.476-52.417-8.895 13.871-5.569-45.881-50.045 83.473-86.555 70.556-51.36 125.822-39.835 25.603-7 77.672-33.428 50.046 42.323-19.918 3.906 57.87v.117l-5.337 31.893 38.314 76.731-161.751 139.088L4777.078 3672l-207.271 27.64-93.568 124.624-70.672 170.285-119.647 110.404 9.36-37.953 63.568-56.323.941-43.755 86.103-171.471 45.173-41.034 49.207-82.055 68.906-34.511 121.542-116.438 84.427-97.718 5.815-91.067h-48.383l-4.976 77.195-36.883 24.546-132.1 128.904-33.673 55.73-89.404-26.209 13.034-32.022-30.36-24.662 30.36-36.883 9.836-91.892-51.696-23.011-95.926 7.36-33.686 118.23-81.23-72.219-56.685 27.859-43.393-18.023-87.87 40.197 100.078 30.36 82.894-31.186 90.357 53.359 1.547 45.185 35.336 50.87-9.604 29.651-56.93 6.162-20.15 212.97 13.872 113.24-35.22 29.651-35.58 13.524-66.277 91.427-47.789 74.823-43.638 41.614-76.37 141.589-73.753 46.72-32.616 63.8-50.754 24.546-81.824 89.893 2.978 44.708-36.419 41.021-35.22 24.546-177.156-185.343-42.092-10.43-61.905-85.38-71.381-95.94-26.802-3.43-53.835-112.298-58.464-137.915-37.476-11.744-45.533-56.092 9.372-56.207-55.021-94.625-3.443-167.204-37.476-45.65-65.58-152.856-54.776-149.878-74.59-84.788-66.522-165.194-84.788 53.372-88.101-78.987-106.021-5.093-108.148-100.206-103.868-14.58-76.01-67.94-108.869-2.965-111.938 87.38-102.334-10.3-82.532-150.6-39.487-7.955-56.208-118.577-68.429-27.395-53.951-135.414-89.288-82.777-105.182-149.053-108.032-124.752 197.564-150.123 178.575-160.076 159.263 134.46 124.624 19.325 151.193 85.265 272.62 213.099 32.138 36.148 29.65-16.115 99.834-12.57 83.963 59.999 32.255-51.335 159.843 137.309 68.661 119.299 59.289-11.976-92.137 74.23-67.23 114.194-44.94 96.404 46.59 15.779 99.266 52.172 79.554-4.744 125.707 93.67 52.056 4.99 7.825 27.988 101.741 102.101 23.244-35.348 52.533-6.64 27.988-23.952 19.208 21.464 91.067 4.628 41.872-2.256 47.544 57.755 11.384 55.614 15.057 68.416 55.73 84.08-79.799-20.163-1.302-40.673-5.698-26.918-21.104 9.372-7 50.033-35.104-25.023 20.756 69.976-11.267 87.147-13.163 80.883 20.64 42.09-32.848 57.51-40.673 125.939 53.835 124.984 68.532-88.578 75.906-83.603 53.475-20.626L3663.95 3693l68.43-34.756 86.682-102.45 39.603-132.925 53.849-.477 21.684-78.859 66.288-32.731 103.65-76.474 19.208-57.754-41.615 15.173 13.627-91.543-46.126-.232-122.974 53.474 63.44-86.438 60.72-115.973 80.044-60.243-47.673.71-67.475 17.545 27.394-52.65-112.879 80.521 49.917-67.822.58-41.512-183.087 172.181 83.834-104.835 242.518-255.538 119.995-125.577 48.15-105.299-46.023 9.85-40.673 77.542-86.67 34.395-37.012 4.023-164.575 96.88 52.172-69.125-96.287 17.198 39.603-42.813 41.253-88.23-108.844 112.891-187.599 4.628-31.43 67.952-79.09 136.845-162.692 161.506-17.546-32.255-76.254 91.428-54.66 68.184-57.046-73.044-47.673-17.327 104.474-145.843 25.731-49.452 111.706-72.812 3.79-29.999 46.372-30.592 72.335-127.601 157.239-33.557 60.475-185.227-19.686-9.604-125.693 122.496 16.127-73.16-80.998 62.37 7.954-62.254-55.382 76.022 90.357-211.075-221.981 144.657 92.497-106.485L3538.734 2180l83.602-30.115 192.343-59.882 198.493-55.73 16.965-18.023 89.997-44.347 173.727-92.02 113.485-57.046 66.534-78.613 294.187-204.075 76.138 5.337 320.048-211.074 383.848-242.982 248.435-107.684 232.527-3.674 111.358 107.684 39.719 1.418 121.31 112.763 208.948 124.16 35.929-55.976 78.265 37.36 66.056 2.836 40.197 40.918 48.859-59.52 233.248-50.278 450.253 108.38 287.91 32.01-354.675 162.229" style="fill:#29354d;fill-opacity:1;fill-rule:nonzero;stroke:none;stroke-width:1.28916" transform="matrix(.13333 0 0 -.13333 0 666.667)"/>
  <path d="m7264.816 1377.457-89.171 83.473 18.022-129.844-62.138 157.007-111.822 161.377-53.01 38.43-4.035 74.94-112.995 21.812-93.336 117.056 11.977-49.581-54.545 27.756-75.416 120.008-30.72-36.651-72.452 54.544-37.708 87.277-4.976-56.556-108.148 146.333-39.255 28.336 72.103 73.882 127.124-99.614 35.569-65.45 132.1-124.044 344.594-272.155 27.291-15.406 86.078-170.17 171.587-175.145-76.718 2.385M5246.192 2882.723l-5.569-45.881-50.045 83.473-86.555 70.556-51.36 125.822-39.835 25.603-7 77.672-33.428 50.046 42.323-19.918 3.906 57.87 14.954-90.24 212.61-335.003M4820.962 3332.628h-48.383l-4.976 77.195-36.883 24.546-132.1 128.904-33.673 55.73-89.404-26.209 13.034-32.022-30.36-24.662 30.36-36.883 9.836-91.892-51.695-23.011-95.927 7.36-33.686 118.23-81.23-72.219-56.685 27.859-43.393-18.023-87.87 40.197 100.078 30.36 82.894-31.186 90.357 53.359 1.547 45.185 35.336 50.87-9.604 29.651-56.93 6.162-20.15 212.97 13.872 113.24-35.22 29.651-35.58 13.524-66.277 91.427-47.789 74.823-43.638 41.614-76.37 141.589-73.753 46.72-32.616 63.8-50.754 24.546-81.824 89.893 2.978 44.708-36.419 41.021 92.266-64.264 116.914-150.845 179.065-206.808 189.494-174.669.116-.116 9.36-37.953 63.568-56.323.941-43.755 86.103-171.471 45.173-41.034 49.207-82.056 68.906-34.51 121.542-116.438 84.428-97.718 5.814-91.067M2524.497 2800.075l-90.241-220.795-91.299-103.056 83.95 141.357 97.59 182.494M2036.42 2817.388l-30.128-67.475-135.065-85.729 89.416 119.531 75.777 33.673M1981.63 2905.026l-39.126-56.569-55.743-9.14-60.23-31.894 56.556 94.87 98.543 2.732M2153.218 2433.308l-84.891-73.895-152.392-37.347-116.683 103.056 90.242-39.256 78.497-27.394 156.066 85.858 29.161-11.022M1765.464 2417.773l-26.441-12.698-47.441 73.882zM1694.779 2156.408l-17.43-58.334-68.3 11.86-147.867-59.302 157.008 91.196 76.589 14.58M3139.235 3303.686l-34.034-37.824-144.322-173.83-51.347-103.288-55.73-42.336 92.38 157.832-68.067-62.847-60.243-101.392-91.788-51.348 46.848 95.579 126.996 107.194 185.471 187.25 53.836 25.01M3103.306 3192.702l-67.359-133.415-74.346-60.23zM3083.376 3437.218l-51.94-100.8-38.418-25.022 23.012 57.161 67.345 68.661M2960.88 3334.523l-23.116-57.741-44.824-26.325zM3091.085 3497.46l-76.963-83.37-74.346-44.23zM3228.406 3427.614l-63.555-43.045 43.625 60.938 18.035 64.162 1.895-82.055M3416.354 3172.179l-29.522-39.72 23.836 126.996zM3383.029 3955.887l-31.417-132.81-86.684-129.019-10.197-81.462-1.895 112.892 89.171 112.892-7.116 112.299 46.836 88.578 1.302-83.37M3184.175 3948.784l-50.045-117.997 1.302 48.021zM3758.356 4286.854l-37.837 11.5-75.777 60.951-128.89-82.055 67.938-160.437 1.315-88.475-30.837-32.719-78.265 87.277-3.79 162.344-26.918 32.01 47.429 77.556 48.15-8.895 138.495 67.346 78.987-126.403M5078.279 2808.609l-62.254-10.906-122.496 81.462-7.104 62.976 30.231-1.303-48.859 134.112-61.545 126.996 10.198 63.568 107.787-184.75 41.756-48.859 14.812-28.22 57.046-36.522 40.428-158.554M5166.38 2754.064l-44.58-16.243-17.674-51.94-66.869 83.718 129.123-15.535M6100.108 2620.069l-75.068 13.755-87.753 85.381-21.58 102.102 44.476-9.024 42.09-59.998 49.221-11.499 13.278-53.487 35.336-67.23M5871.836 2472.91l-76.847 139.927-64.393 66.044-48.022 70.916 129.729-69.73-24.533-25.732 29.999-37.347 54.067-144.077M5873.022 2583.418l-34.859 87.044-50.393 59.534-60.127 86.554 120.125-97.345 25.254-135.787M5527.59 2791.889l-63.67 24.068-7.246-62.486-20.395 126.055 91.312-87.638M5844.79 2445.168l-121.31 38.533-65.568 37.824-15.534-128.542-7.232 139.925 11.963 31.907 86.568-42.104 111.113-77.543M5351.504 2226.72l27.266-131.134-153.565 300.478-58.825 109.695-66.637 78.136-14.348 88.94 31.546-40.08 40.209-87.51 65.928-61.673-53.72 97.487-10.79 45.172 63.788-35.091 114.078-170.054 63.8-137.67 2.85-63.091-108.277 121.903 56.697-115.509" style="fill:#fff;fill-opacity:1;fill-rule:nonzero;stroke:none;stroke-width:1.28916" transform="matrix(.13333 0 0 -.13333 0 666.667)"/>
  <path d="m3751.832 3339.5-37.475 67.474-41.267 39.732 69.01-26.208 110.88-110.16 105.776-128.194-110.159 63.685-86.22 44.231-108.031 69.718zm71.975 47.325 54.66-21 18.035-63.789-95.94 80.277-72.695 80.985zm896.123-2094.17 231.108-80.74 265.98-180.018-145.61 154.635-258.156 108.973 97.72 5.685-145.277 89.3-140.39 70.788-197.448 195.438-71.02 81.1-103.172 64.395-10.79 65.58-90.835 72.798-61.312 11.384-60.59 64.277-16.966 18.023-198.493 55.73-192.343 59.882-83.602 30.115-122.729 56.93-92.497 106.484 221.981-144.657-90.357 211.075 55.382-76.022-7.954 62.254 80.998-62.37-16.127 73.16 125.693-122.496 19.686 9.604-60.475 185.227-157.24 33.557-72.334 127.601-46.372 30.592-3.79 30-111.706 72.811-25.731 49.452-104.474 145.843 47.673 17.327 57.045 73.044 54.661-68.184 76.254-91.428 17.546 32.255 162.692-161.506 79.09-136.845 31.43-67.952 187.6-4.628 108.843-112.892-41.253 88.23-39.603 42.814 96.287-17.198-52.172 69.125 164.575-96.88 37.011-4.023 86.671-34.395 40.673-77.543 46.023-9.849-48.15 105.299-119.995 125.577-242.518 255.538-83.834 104.835 183.087-172.18-.58 41.51-49.917 67.823 112.88-80.52-27.395 52.649 67.475-17.546 47.673-.709-80.044 60.243-60.72 115.973-63.44 86.438 122.974-53.474 46.126.232-13.627 91.543 41.615-15.173-19.209 57.755-103.649 76.473-66.288 32.732-21.684 78.858-53.848.477-39.604 132.925-86.683 102.45-68.429 34.756-18.254 27.988-53.475 20.626-75.906 83.603-68.532 88.578-53.835-124.984 40.673-125.939 32.848-57.51-20.64-42.09 13.163-80.883 11.267-87.147-20.755-69.976 35.103 25.023 7-50.033 21.104-9.372 5.698 26.918 1.302 40.673 79.8 20.163-55.731-84.08-15.057-68.416-11.384-55.614-47.544-57.755-41.872 2.256-91.067-4.628-19.208-21.464-27.988 23.952-52.533 6.64-23.244 35.348-101.74-102.101-7.826-27.988-52.056-4.99-125.707-93.67-79.554 4.744-99.266-52.172-46.59-15.78 44.94-96.403 67.23-114.194 92.137-74.23 102.578-20.872 78.858-14.71 119.416-95.81 74.346-103.765-102.579 88.579-1.186-37.811-64.742 88.333-96.287 42.452 3.674-63.44 57.045 14.233-17.674-161.274-75.532-80.522-77.917-103.158-96.997-80.522 111.59 55.615 72.567 85.497 18.267-26.801 36.278 42.697 12.092-68.3 36.174-75.545-44.463-103.765-87.87-80.044-124.868-39.835-86.09-49.453-100.916.477-103.997-34.988-48.498-64.032 170.04 59.056 44.824-24.417 87.754 51.451 95.927-18.023 45.43 42.453 69.24-90.358 9.734 47.905 52.172 98.3 125.578-168.262 36.522-176.087 40.918-99.962 2.836-68.429 201.006-84.904 35.568 27.988 115.51-13.408 111.576 18.268-129.02 188.076-149.413 116.192 124.275-28.336 59.52-70.904 94.045-6.639 84.196-77.311-19.454-14.838 13.292-34.73 128.89-87.406-65.45 112.3-95.102 126.53-97.719 108.38-162.937 100.788-125.81 109.218-159.134 183.215-91.544 131.38 30.36.36 125.81-129.96-144.31 217.83-44.824 91.556 73.986-54.79 114.078-40.57 54.08-59.868 85.252-53.72 107.916-103.636 72.812 63.917 79.438-45.662 75.3-97.113 32.14-17.558 2.01 25.616 158.323-160.798 192.214-157.948-163.17 166.611-104.473 115.02-7.593 38.533 61.79-37.824 66.288-91.544 83.834-86.206 86.09-93.09-84.543 127.717-64.754 84.788 154.042-161.88-71.15 127.717-88.823 102.218 110.65-78.73 130.437-100.09 97.938-106.24 91.556-90.602 99.717-118.346-182.365 80.766 40.66-85.278-78.73 57.046-136.019 89.171 73.521-115.032 98.067-99.485-57.51 2.024 148.228-83.138 106.601-49.323-98.183 94.624-73.985 61.429 153.669-75.171 89.287-51.708 183.1-98.905 217.237-208.11-146.926 186.53-182.133 162.692" style="fill:#fff;fill-opacity:1;fill-rule:nonzero;stroke:none;stroke-width:1.28916" transform="matrix(.13333 0 0 -.13333 0 666.667)"/>
  <path d="m3958.756 3182.144-110.159 63.685-86.22 44.231-108.031 69.718 97.486-20.279-37.475 67.475-41.267 39.732 69.01-26.208 110.88-110.16 105.776-128.194M3896.503 3302.036l-95.94 80.277-72.696 80.985 95.94-76.473 54.66-21 18.035-63.789" style="fill:#29354d;fill-opacity:1;fill-rule:nonzero;stroke:none;stroke-width:1.28916" transform="matrix(.13333 0 0 -.13333 0 666.667)"/>
  <path d="m3609.406 3867.902-67.114 37.476 38.778-54.906-106.253 100.8 25.5-55.498-43.638 28.58 19.685 133.403 63.556-79.335 47.08 21.348 101.032-100.322-78.626-31.546M3716.845 3855.693l-82.894.348 56.453 25.732zM3672.253 4025.863l-7.942-26.093-65.103 35.104zM3859.735 3635.479l-88.346 34.626-71.858 21.465-34.743 30.244 92.137-20.279 17.313 10.79 59.52-19.917 25.978-56.93M3999.777 3976.179l-46.719-56.337-1.663 64.742zM4119.914 4049.339l-74.01-43.87 16.849 40.312zM3986.022 4047.56l-58.103-49.22-30.592 45.662zM3940.025 2127.84l4.963-39.848-86.67 118.578-33.802 86.696 27.033 6.15-33.789 57.754 100.207-87.277 110.636 11.616 41.73-48.486-95.217 12.209 89.764-88.463 78.033-118.59-202.888 89.661M5102.463 1893.754l-137.308 84.08-26.08 81.23 63.556-67.243 14.825 32.603-50.393 121.439 62.601-95.23 17.662-75.649zm318.41 37.36-125.1 69.963-91.556 96.159L5127.731 2201l-47.544-18.267-40.08 88.823-78.278 52.405-48.73 51.824-97.952 15.419-61.66 29.522-49.453 43.767-53.59 5.569 5.57-25.268-77.08 9.256-58.58 50.51 49.324 35.826 77.685-20.292 41.382-40.789-17.906 110.997-157.24 152.972-85.742 88.102-75.184 103.648-16.72-45.069-63.427-38.778-29.651 14.826-72.103-80.87.593-23.952-75.893-6.884 17.313-79.439 73.405-67.835 148.59-106.137-25.255 67.835 102.926-101.624-41.15 117.636 113.008-88.707-58.811-12.209 40.196-102.695-74.707 19.686-36.406 40.08-7.464-36.393-45.779-67.243 91.428-190.448 102.798-105.53 53.255 5.568 18.603 38.301 47.686-48.498 90.473-48.614 30.837-136.265 98.054-69.125-27.988 89.649 169.938-124.276-192.343 308.2 154.042-113.962 3.79-27.987 69.022-53.243 123.321-32.603 69.963-67.242 57.987-34.614-129.845 252.095-64.394 97.113 111.938-87.74.942 57.857 95.346-81.23-2.849-97.113 97.126-141.95 44.824 113.022-16.837 57.032 22.419 35.465" style="fill:#fff;fill-opacity:1;fill-rule:nonzero;stroke:none;stroke-width:1.28916" transform="matrix(.13333 0 0 -.13333 0 666.667)"/>
  <path d="m5102.463 1893.754-137.308 84.08-26.08 81.23 63.556-67.243 14.825 32.603-50.393 121.439 62.601-95.23 17.662-75.649 55.137-81.23" style="fill:#29354d;fill-opacity:1;fill-rule:nonzero;stroke:none;stroke-width:1.28916" transform="matrix(.13333 0 0 -.13333 0 666.667)"/>
  <path d="m5737.84 1303.923-51.347 71.626-16.733-83.963-39.835 82.184-42.452 26.57-130.915 263.595-14.116 120.24 91.08-132.693v-45.057l62.73-123.798-9.733 103.404 80.52-160.089-12.337 122.974 63.685-128.182 19.454-116.81M6103.074 1192.462l-61.081 48.73-68.055 75.184-50.406 65.348-58.348 22.16-40.673 67.244-104.345 88.45-59.288 16.732-41.628 59.29v134.472l-105.891 257.91-6.885 153.217-24.184-60.604-34.743 137.683 43.277 4.267-68.287 83.95-34.64 50.278 118.577-59.766 66.895-98.299 50.394-91.904 60.938-38.069 134.486-38.056 39.719 22.999 122.973-103.391-41.498-20.395-94.637 78.73-7.955-51.348-79.67 58.463-46.023-37.244-63.672 86.697-2.604-130.928-41.511 35.452 30.966-103.507 92.845-211.306-82.3 108.728 68.055-169.809 67.243-61.068 130.09-113.124 96.403-118.59 95.463-148.576M4346.395 3023.835l-1.534-58.696-115.741-22.173-121.659 77.788 27.382 88.346 63.8-44.463-1.417 47.428 54.892-11.151 94.277-77.08M4444.23 3041.625l7.464 35.581-27.395 72.683 64.51-66.753 53.371-12.582-97.95-28.929M4570.4 3368.08l22.999-79.45-60.836 89.763-15.535 59.418 106.846-105.415-53.474 35.684" style="fill:#fff;fill-opacity:1;fill-rule:nonzero;stroke:none;stroke-width:1.28916" transform="matrix(.13333 0 0 -.13333 0 666.667)"/>
  <path d="m6062.155 1504.8 43.278-89.88-80.16 59.65-26.905 112.054-62.976 139.694-77.672 89.996 125.1-75.184 34.28 98.905 40.08-185.575-43.278 17.197 98.054-143.96-37.58 101.379 144.67-217.482-156.89 93.207M6533.048 1632.634l18.139-222.458-117.391 66.65-75.778 124.146-21.335-34.975-72.348 7.825-72.206 98.3-102.824 205.505 112.892 147.867-48.498-15.78-48.485 86.942-116.347 68.88 103.893 12.453-68.906 198.75 83.59-82.416 86.941-160.32 110.636 14.58-65.464-72.219 14.697-55.382 69.976 85.87-28.233-108.392-37.347-136.6 294.793-24.906-103.868-104.951 13.497-156.995 69.976 57.626" style="fill:#fff;fill-opacity:1;fill-rule:nonzero;stroke:none;stroke-width:1.28916" transform="matrix(.13333 0 0 -.13333 0 666.667)"/>
</svg>
